<svg width="192" height="192" viewBox="0 0 192 192" fill="none" xmlns="http://www.w3.org/2000/svg">
<path d="M119.943 146.663C118.927 147.679 117.72 148.486 116.392 149.036C115.064 149.586 113.641 149.87 112.203 149.87C110.766 149.87 109.343 149.586 108.015 149.036C106.687 148.486 105.48 147.679 104.464 146.663L41.5017 83.7105C32.4208 74.4442 27.3637 61.9687 27.4292 48.9948C27.4947 36.0209 32.6776 23.5971 41.8517 14.4231C51.0257 5.24907 63.4495 0.0661552 76.4234 0.000628917C89.3973 -0.0648973 101.873 4.99226 111.139 14.0731L150.932 53.8659C152.979 55.9239 154.125 58.7109 154.118 61.6138C154.11 64.5168 152.95 67.2979 150.892 69.3453C148.834 71.3927 146.047 72.5387 143.144 72.5313C140.241 72.5238 137.46 71.3635 135.413 69.3055L95.6696 29.5127C90.5352 24.3784 83.5715 21.4939 76.3104 21.4939C69.0493 21.4939 62.0856 24.3784 56.9513 29.5127C51.8169 34.6471 48.9324 41.6108 48.9324 48.8719C48.9324 56.133 51.8169 63.0967 56.9513 68.2311L119.913 131.193C121.968 133.241 123.125 136.021 123.13 138.922C123.136 141.822 121.989 144.607 119.943 146.663Z" fill="#7EC2FF"/>
<path d="M150.544 177.263C141.301 186.482 128.78 191.66 115.725 191.66C102.671 191.66 90.149 186.482 80.9065 177.263L41.1635 137.47C40.0606 136.476 39.1718 135.267 38.5513 133.917C37.9307 132.568 37.5913 131.106 37.5539 129.621C37.5164 128.136 37.7816 126.659 38.3333 125.28C38.885 123.901 39.7117 122.649 40.763 121.6C41.8143 120.551 43.0682 119.726 44.4483 119.177C45.8284 118.628 47.3058 118.366 48.7906 118.406C50.2753 118.446 51.7363 118.789 53.0846 119.412C54.4329 120.035 55.6401 120.926 56.6329 122.031L96.3759 161.824C101.518 166.897 108.458 169.731 115.682 169.707C122.906 169.683 129.827 166.803 134.935 161.694C140.043 156.586 142.924 149.665 142.948 142.441C142.972 135.218 140.138 128.277 135.064 123.135L72.1023 60.1432C70.0496 58.0905 68.8965 55.3065 68.8965 52.4035C68.8965 49.5006 70.0496 46.7165 72.1023 44.6638C74.155 42.6111 76.9391 41.4579 79.842 41.4579C82.745 41.4579 85.529 42.6111 87.5817 44.6638L150.544 107.626C159.765 116.867 164.945 129.389 164.945 142.445C164.945 155.5 159.765 168.022 150.544 177.263Z" fill="#7EC2FF"/>
</svg>
