<svg width="24" height="24" viewBox="0 0 24 24" fill="none" xmlns="http://www.w3.org/2000/svg">
<path d="M1.99999 22C3.24999 21.013 4.26999 20.025 5.89999 19.8C7.31111 19.7997 8.66956 20.3359 9.69999 21.3C10.2347 21.6746 10.853 21.9126 11.5009 21.9933C12.1488 22.0739 12.8066 21.9947 13.4169 21.7626C14.0271 21.5306 14.5713 21.1526 15.0018 20.6618C15.4324 20.171 15.7363 19.5823 15.887 18.947C16.5358 19.0627 17.2041 18.9928 17.8149 18.7455C18.4258 18.4981 18.9544 18.0833 19.3399 17.5488C19.7255 17.0143 19.9522 16.3818 19.9942 15.7241C20.0361 15.0664 19.8915 14.4102 19.577 13.831C20.1502 13.6458 20.666 13.3158 21.0743 12.8729C21.4827 12.4299 21.7698 11.8891 21.9078 11.3027C22.0459 10.7163 22.0303 10.1042 21.8625 9.52564C21.6947 8.94705 21.3804 8.42157 20.95 8.00004C21.275 7.67502 21.5328 7.28916 21.7087 6.8645C21.8846 6.43984 21.9752 5.98469 21.9752 5.52504C21.9752 5.06539 21.8846 4.61024 21.7087 4.18558C21.5328 3.76092 21.275 3.37506 20.95 3.05004C20.625 2.72502 20.2391 2.4672 19.8144 2.2913C19.3898 2.1154 18.9346 2.02486 18.475 2.02486C17.5467 2.02486 16.6564 2.39363 16 3.05004C15.5785 2.61965 15.053 2.30534 14.4744 2.13754C13.8958 1.96974 13.2837 1.95412 12.6973 2.09219C12.1109 2.23027 11.5701 2.51736 11.1271 2.9257C10.6842 3.33403 10.3542 3.84978 10.169 4.42304C9.58983 4.10852 8.93365 3.96391 8.27595 4.00584C7.61824 4.04778 6.98574 4.27456 6.45122 4.66009C5.91671 5.04561 5.5019 5.57422 5.25454 6.18508C5.00718 6.79594 4.93732 7.46423 5.05298 8.11304C4.42324 8.2664 3.8402 8.5705 3.35404 8.99915C2.86788 9.4278 2.49317 9.96818 2.26216 10.5738C2.03114 11.1793 1.95074 11.832 2.02788 12.4755C2.10502 13.1191 2.33739 13.7342 2.70498 14.268C3.49898 15.42 4.40898 16.712 4.19998 18.1C3.92598 19.743 3.01399 20.732 1.99999 22Z" stroke="white" stroke-width="2" stroke-linecap="round" stroke-linejoin="round"/>
<path d="M2 22L17 7" stroke="white" stroke-width="2" stroke-linecap="round" stroke-linejoin="round"/>
</svg>
