<svg width="24" height="24" viewBox="0 0 24 24" fill="none" xmlns="http://www.w3.org/2000/svg">
<path d="M11 8H5C3.89543 8 3 8.89543 3 10V20C3 21.1046 3.89543 22 5 22H11C12.1046 22 13 21.1046 13 20V10C13 8.89543 12.1046 8 11 8Z" stroke="white" stroke-width="2" stroke-linecap="round" stroke-linejoin="round"/>
<path d="M5 4C5 3.46957 5.21071 2.96086 5.58579 2.58579C5.96086 2.21071 6.46957 2 7 2H19C19.5304 2 20.0391 2.21071 20.4142 2.58579C20.7893 2.96086 21 3.46957 21 4V20C21 20.5304 20.7893 21.0391 20.4142 21.4142C20.0391 21.7893 19.5304 22 19 22H16.6" stroke="white" stroke-width="2" stroke-linecap="round" stroke-linejoin="round"/>
<path d="M8 18H8.01" stroke="white" stroke-width="2" stroke-linecap="round" stroke-linejoin="round"/>
</svg>
