<svg width="116" height="32" viewBox="0 0 116 32" fill="none" xmlns="http://www.w3.org/2000/svg">
<g clip-path="url(#clip0_204_83)">
<path d="M19.5386 23.4367C19.3905 23.5849 19.2145 23.7026 19.0208 23.7828C18.8272 23.8631 18.6196 23.9044 18.4099 23.9044C18.2003 23.9044 17.9927 23.8631 17.7991 23.7828C17.6054 23.7026 17.4294 23.5849 17.2812 23.4367L8.09927 14.2562C6.77497 12.9048 6.03747 11.0855 6.04703 9.19347C6.05658 7.30144 6.81243 5.48964 8.1503 4.15176C9.48818 2.81388 11.3 2.05804 13.192 2.04848C15.084 2.03893 16.9034 2.77643 18.2547 4.10072L24.0578 9.90383C24.3564 10.204 24.5235 10.6104 24.5224 11.0337C24.5214 11.4571 24.3521 11.8627 24.052 12.1612C23.7519 12.4598 23.3455 12.627 22.9221 12.6259C22.4988 12.6248 22.0932 12.4556 21.7946 12.1554L15.9988 6.35233C15.25 5.60357 14.2345 5.18292 13.1755 5.18292C12.1166 5.18292 11.1011 5.60357 10.3523 6.35233C9.60357 7.10109 9.18291 8.11663 9.18291 9.17554C9.18291 10.2345 9.60357 11.25 10.3523 11.9988L19.5343 21.1807C19.8339 21.4794 20.0026 21.8848 20.0034 22.3078C20.0042 22.7308 19.8371 23.1369 19.5386 23.4367Z" fill="#98D3FF"/>
<path d="M24.0012 27.8993C22.6534 29.2437 20.8273 29.9988 18.9235 29.9988C17.0197 29.9988 15.1937 29.2437 13.8458 27.8993L8.04995 22.0962C7.88911 21.9511 7.7595 21.7748 7.669 21.578C7.5785 21.3812 7.52901 21.168 7.52355 20.9515C7.51808 20.7349 7.55676 20.5195 7.63722 20.3184C7.71768 20.1173 7.83823 19.9347 7.99155 19.7817C8.14486 19.6287 8.32772 19.5085 8.52898 19.4284C8.73025 19.3483 8.94571 19.3101 9.16223 19.3159C9.37876 19.3218 9.59182 19.3717 9.78844 19.4626C9.98507 19.5535 10.1611 19.6834 10.3059 19.8446L16.1018 25.6477C16.8517 26.3876 17.8638 26.8009 18.9173 26.7973C19.9707 26.7938 20.9801 26.3738 21.725 25.6288C22.4699 24.8839 22.89 23.8746 22.8935 22.8211C22.897 21.7676 22.4838 20.7555 21.7438 20.0056L12.5619 10.8193C12.2625 10.5199 12.0943 10.1139 12.0943 9.69057C12.0943 9.26722 12.2625 8.86121 12.5619 8.56186C12.8612 8.26251 13.2672 8.09434 13.6906 8.09434C14.1139 8.09434 14.5199 8.26251 14.8193 8.56186L24.0012 17.7438C25.3461 19.0915 26.1014 20.9177 26.1014 22.8216C26.1014 24.7254 25.3461 26.5516 24.0012 27.8993Z" fill="#98D3FF"/>
</g>
<path d="M53.416 24.336C52.12 24.336 50.976 24.104 49.984 23.64C48.992 23.176 48.216 22.512 47.656 21.648C47.096 20.784 46.816 19.744 46.816 18.528V17.856H49.936V18.528C49.936 19.536 50.248 20.296 50.872 20.808C51.496 21.304 52.344 21.552 53.416 21.552C54.504 21.552 55.312 21.336 55.84 20.904C56.384 20.472 56.656 19.92 56.656 19.248C56.656 18.784 56.52 18.408 56.248 18.12C55.992 17.832 55.608 17.6 55.096 17.424C54.6 17.232 53.992 17.056 53.272 16.896L52.72 16.776C51.568 16.52 50.576 16.2 49.744 15.816C48.928 15.416 48.296 14.896 47.848 14.256C47.416 13.616 47.2 12.784 47.2 11.76C47.2 10.736 47.44 9.864 47.92 9.144C48.416 8.408 49.104 7.848 49.984 7.464C50.88 7.064 51.928 6.864 53.128 6.864C54.328 6.864 55.392 7.072 56.32 7.488C57.264 7.888 58 8.496 58.528 9.312C59.072 10.112 59.344 11.12 59.344 12.336V13.056H56.224V12.336C56.224 11.696 56.096 11.184 55.84 10.8C55.6 10.4 55.248 10.112 54.784 9.936C54.32 9.744 53.768 9.648 53.128 9.648C52.168 9.648 51.456 9.832 50.992 10.2C50.544 10.552 50.32 11.04 50.32 11.664C50.32 12.08 50.424 12.432 50.632 12.72C50.856 13.008 51.184 13.248 51.616 13.44C52.048 13.632 52.6 13.8 53.272 13.944L53.824 14.064C55.024 14.32 56.064 14.648 56.944 15.048C57.84 15.448 58.536 15.976 59.032 16.632C59.528 17.288 59.776 18.128 59.776 19.152C59.776 20.176 59.512 21.08 58.984 21.864C58.472 22.632 57.736 23.24 56.776 23.688C55.832 24.12 54.712 24.336 53.416 24.336ZM66.0507 24.192C65.1227 24.192 64.3067 23.984 63.6027 23.568C62.9147 23.136 62.3787 22.544 61.9947 21.792C61.6107 21.04 61.4187 20.176 61.4187 19.2V12.096H64.4427V18.96C64.4427 19.856 64.6587 20.528 65.0907 20.976C65.5387 21.424 66.1707 21.648 66.9867 21.648C67.9147 21.648 68.6347 21.344 69.1467 20.736C69.6587 20.112 69.9147 19.248 69.9147 18.144V12.096H72.9387V24H69.9627V22.44H69.5307C69.3387 22.84 68.9787 23.232 68.4507 23.616C67.9227 24 67.1227 24.192 66.0507 24.192ZM80.3837 24.336C79.4397 24.336 78.5517 24.104 77.7197 23.64C76.9037 23.16 76.2477 22.464 75.7517 21.552C75.2557 20.64 75.0077 19.536 75.0077 18.24V17.856C75.0077 16.56 75.2557 15.456 75.7517 14.544C76.2477 13.632 76.9037 12.944 77.7197 12.48C78.5357 12 79.4237 11.76 80.3837 11.76C81.1037 11.76 81.7038 11.848 82.1838 12.024C82.6797 12.184 83.0797 12.392 83.3837 12.648C83.6878 12.904 83.9198 13.176 84.0798 13.464H84.5118V7.2H87.5357V24H84.5598V22.56H84.1278C83.8557 23.008 83.4317 23.416 82.8558 23.784C82.2958 24.152 81.4718 24.336 80.3837 24.336ZM81.2958 21.696C82.2238 21.696 82.9998 21.4 83.6238 20.808C84.2478 20.2 84.5598 19.32 84.5598 18.168V17.928C84.5598 16.776 84.2478 15.904 83.6238 15.312C83.0157 14.704 82.2397 14.4 81.2958 14.4C80.3677 14.4 79.5917 14.704 78.9677 15.312C78.3437 15.904 78.0317 16.776 78.0317 17.928V18.168C78.0317 19.32 78.3437 20.2 78.9677 20.808C79.5917 21.4 80.3677 21.696 81.2958 21.696ZM95.1124 24.336C93.5604 24.336 92.2884 24 91.2964 23.328C90.3044 22.656 89.7044 21.696 89.4964 20.448L92.2804 19.728C92.3924 20.288 92.5764 20.728 92.8324 21.048C93.1044 21.368 93.4324 21.6 93.8164 21.744C94.2164 21.872 94.6484 21.936 95.1124 21.936C95.8164 21.936 96.3364 21.816 96.6724 21.576C97.0084 21.32 97.1764 21.008 97.1764 20.64C97.1764 20.272 97.0164 19.992 96.6964 19.8C96.3764 19.592 95.8644 19.424 95.1604 19.296L94.4884 19.176C93.6564 19.016 92.8964 18.8 92.2084 18.528C91.5204 18.24 90.9684 17.848 90.5524 17.352C90.1364 16.856 89.9284 16.216 89.9284 15.432C89.9284 14.248 90.3604 13.344 91.2244 12.72C92.0884 12.08 93.2244 11.76 94.6324 11.76C95.9604 11.76 97.0644 12.056 97.9444 12.648C98.8244 13.24 99.4004 14.016 99.6724 14.976L96.8644 15.84C96.7364 15.232 96.4724 14.8 96.0724 14.544C95.6884 14.288 95.2084 14.16 94.6324 14.16C94.0564 14.16 93.6164 14.264 93.3124 14.472C93.0084 14.664 92.8564 14.936 92.8564 15.288C92.8564 15.672 93.0164 15.96 93.3364 16.152C93.6564 16.328 94.0884 16.464 94.6324 16.56L95.3044 16.68C96.2004 16.84 97.0084 17.056 97.7284 17.328C98.4644 17.584 99.0404 17.96 99.4564 18.456C99.8884 18.936 100.104 19.592 100.104 20.424C100.104 21.672 99.6484 22.64 98.7364 23.328C97.8404 24 96.6324 24.336 95.1124 24.336ZM103.33 28.8V26.16H109.81C110.258 26.16 110.482 25.92 110.482 25.44V22.44H110.05C109.922 22.712 109.722 22.984 109.45 23.256C109.178 23.528 108.81 23.752 108.346 23.928C107.882 24.104 107.29 24.192 106.57 24.192C105.642 24.192 104.826 23.984 104.122 23.568C103.434 23.136 102.898 22.544 102.514 21.792C102.13 21.04 101.938 20.176 101.938 19.2V12.096H104.962V18.96C104.962 19.856 105.178 20.528 105.61 20.976C106.058 21.424 106.69 21.648 107.506 21.648C108.434 21.648 109.154 21.344 109.666 20.736C110.178 20.112 110.434 19.248 110.434 18.144V12.096H113.458V26.112C113.458 26.928 113.218 27.576 112.738 28.056C112.258 28.552 111.618 28.8 110.818 28.8H103.33Z" fill="#DCF3FF"/>
<defs>
<clipPath id="clip0_204_83">
<rect width="20.1005" height="28" fill="white" transform="translate(6 2)"/>
</clipPath>
</defs>
</svg>
